# xmcd
#
# Track frame offsets: 
#        150
#        11988
#        26997
#        41473
#        53602
#        64342
#        78967
#        89187
#        99535
#        113024
#        128002
#        141657
#        155130
#        169919
#        189823
#        204910
#        223143
#        237315
#        258031
#        277037
#        293163
#        305810
#        325735
#
# Disc length: 4523 seconds
#
# Revision: 0
# Processed by: cddbd v1.5.1PL0 Copyright (c) Steve Scherf et al.
# Submitted via: ExactAudioCopy v0.95a5
#
DISCID=5a11a917
DTITLE=James Carr - My Soul Is Satisfied
DYEAR=2004
DGENRE=Soul
TTITLE0=Pouring Water On A Drowning Man
TTITLE1=Love Attack
TTITLE2=What The World Needs Now Is Love
TTITLE3=She's Better Than You
TTITLE4=I Can't Help Myself (Sugar Pie, Honey Bunch)
TTITLE5=A Woman Is A Man's Best Friend
TTITLE6=A Losing Game
TTITLE7=Row, Row You Boat
TTITLE8=Hold On
TTITLE9=I'll Put It To You
TTITLE10=Let Me Be Right (I Don't Want To Be Wrong)
TTITLE11=Bring Her Back
TTITLE12=Hit And Run
TTITLE13=A Woman's Got The Power
TTITLE14=Hungry For Your Love
TTITLE15=It's Sweet On The Backstreet
TTITLE16=The Dark End Of The Street
TTITLE17=I'm Gonna Marry My Mother In Law
TTITLE18=That's When The Blues Began
TTITLE19=Try My Love
TTITLE20=The Jubilee Hummingbirds - Jordan River
TTITLE21=The Jubilee Hummingbirds - He'll Be There aka You've Got A Fr
TTITLE21=iend
TTITLE22=The Jubilee Hummingbirds - My Soul Is Satisfied
EXTD=
EXTT0=
EXTT1=
EXTT2=
EXTT3=
EXTT4=
EXTT5=
EXTT6=
EXTT7=
EXTT8=
EXTT9=
EXTT10=
EXTT11=
EXTT12=
EXTT13=
EXTT14=
EXTT15=
EXTT16=
EXTT17=
EXTT18=
EXTT19=
EXTT20=
EXTT21=
EXTT22=
PLAYORDER=
